grf
version=1
nRows=6
nColumns=37
inDegrees=no
endheader
time	ground_force_1_vx	ground_force_1_vy	ground_force_1_vz	ground_force_1_px	ground_force_1_py	ground_force_1_pz	ground_moment_1_mx	ground_moment_1_my	ground_moment_1_mz	ground_force_2_vx	ground_force_2_vy	ground_force_2_vz	ground_force_2_px	ground_force_2_py	ground_force_2_pz	ground_moment_2_mx	ground_moment_2_my	ground_moment_2_mz	ground_force_3_vx	ground_force_3_vy	ground_force_3_vz	ground_force_3_px	ground_force_3_py	ground_force_3_pz	ground_moment_3_mx	ground_moment_3_my	ground_moment_3_mz	ground_force_4_vx	ground_force_4_vy	ground_force_4_vz	ground_force_4_px	ground_force_4_py	ground_force_4_pz	ground_moment_4_mx	ground_moment_4_my	ground_moment_4_mz
      0.00000000	      0.00000000	     -0.00000000	      0.00000000	      0.00000000	      0.00000000	      0.00000000	      0.00000000	      0.00000000	      0.00000000	     19.85762978	      2.76550698	   -687.98480225	   -311.15978461	  -1000.69731731	      0.00000000	      0.00000000	     -0.00000000	  -1301.39991477	    -20.90689747	    -10.00906952	    -81.58793640	   -184.16694588	   -892.29306147	      0.00000000	      0.00000000	     -0.00000000	   -488.83560493	    -35.09661349	     15.37644598	     74.87704468	    611.28203201	   -563.95313105	      0.00000000	      0.00000000	      0.00000000	     49.57425268
      0.01000000	      0.00000000	     -0.00000000	      0.00000000	      0.00000000	      0.00000000	      0.00000000	      0.00000000	      0.00000000	      0.00000000	     20.06706810	      2.52447939	   -685.88592529	   -311.46383746	   -999.93875225	      0.00000000	      0.00000000	     -0.00000000	  -1290.68629704	    -20.90695851	    -10.15932949	    -82.39978027	   -182.69366354	   -891.81143186	      0.00000000	      0.00000000	     -0.00000000	   -692.73975691	    -34.74167491	     16.19453734	     76.60910034	    599.75895014	   -563.73985329	      0.00000000	      0.00000000	     -0.00000000	    -11.47151110
      0.02000000	      0.00000000	     -0.00000000	      0.00000000	      0.00000000	      0.00000000	      0.00000000	      0.00000000	      0.00000000	      0.00000000	     20.27381516	      2.25126958	   -684.12097168	   -311.64713786	   -999.15858055	      0.00000000	      0.00000000	     -0.00000000	  -1380.58293077	    -21.35315985	    -10.27390007	    -82.28677368	   -183.10199231	   -892.49821948	      0.00000000	      0.00000000	     -0.00000000	   -342.89719621	    -35.03578042	     16.47084542	     75.55505371	    606.39362793	   -564.08105752	      0.00000000	      0.00000000	     -0.00000000	   -226.19193027
      0.03000000	      0.00000000	     -0.00000000	      0.00000000	      0.00000000	      0.00000000	      0.00000000	      0.00000000	      0.00000000	      0.00000000	     20.61068916	      2.32044864	   -684.91754150	   -311.76966569	   -999.42804822	      0.00000000	      0.00000000	     -0.00000000	  -1407.23540209	    -21.08451744	    -10.45322901	    -84.03277588	   -184.63695320	   -887.85134721	      0.00000000	      0.00000000	     -0.00000000	   -714.36725460	    -34.86347439	     16.16567726	     75.80566406	    602.44895618	   -564.37352681	      0.00000000	      0.00000000	     -0.00000000	    -21.24157096
      0.04000000	      0.00000000	     -0.00000000	      0.00000000	      0.00000000	      0.00000000	      0.00000000	      0.00000000	      0.00000000	      0.00000000	     21.26074219	      2.53083491	   -685.90148926	   -311.99315098	  -1000.00496734	      0.00000000	      0.00000000	     -0.00000000	  -1439.71776782	    -21.37930009	    -10.57312016	    -83.44723511	   -182.83204995	   -895.77215688	      0.00000000	      0.00000000	     -0.00000000	   -523.09317597	    -35.06412366	     16.06493684	     75.58110046	    604.78106041	   -564.85047671	      0.00000000	      0.00000000	     -0.00000000	    -10.83687930
      0.05000000	      0.00000000	     -0.00000000	      0.00000000	      0.00000000	      0.00000000	      0.00000000	      0.00000000	      0.00000000	      0.00000000	     21.74225998	      2.67391205	   -687.06188965	   -312.26665217	  -1000.43503380	      0.00000000	      0.00000000	     -0.00000000	  -1472.98088489	    -21.52503868	    -10.43772509	    -85.74165344	   -185.85936126	   -885.01474687	      0.00000000	      0.00000000	     -0.00000000	   -635.63014693	    -35.03916028	     16.04332086	     74.27497864	    612.16007266	   -566.86136032	      0.00000000	      0.00000000	     -0.00000000	    -43.32353626
